<svg xmlns="http://www.w3.org/2000/svg" viewBox="0 0 328 328"><defs><style>.a{fill:#fff;}.b{fill:#e35525;}.c{fill:#392e2c;}</style></defs><title>gtd-tag-whitebox</title><polygon class="a" points="0 0 0 328 328 328 328 0 0 0 0 0"/><polygon class="b" points="253.53 212.43 139.12 212.43 139.12 231.61 253.53 231.61 253.53 212.43 253.53 212.43"/><path class="c" d="M148.14,162.65V95.4h-9V77.12h9V49.59h19.19V77.12h15.79V95.4H167.33v65c0,10.61,4.06,15.8,15.79,14.9v18.06c-25.05,2-35-11.07-35-30.7"/><path class="c" d="M234.35,108c0-10.39-4.74-15.35-12-15.35s-12,5-12,15.35v54.38c0,10.38,4.74,15.35,12,15.35s12-5,12-15.35V108Zm.68,85.31v-7.68c-2.26,5.87-9.93,9.48-16.93,9.48-18.28,0-26.86-11.29-26.86-31.6V106.9c0-20.3,8.58-31.59,26.86-31.59,6.55,0,14.22,3.84,16.25,9V37.17h19.18V193.35Z"/><path class="c" d="M110,108c0-10.39-4.74-15.35-12-15.35s-12,5-12,15.35v54.38c0,10.38,4.74,15.34,12,15.34s12-5,12-15.34V108ZM98.27,237.34c-19.4,0-30.91-11.51-30.91-31.59v-3.16H86.54v2C86.54,215,91.05,220,98.27,220S110,215,110,204.62V186.11c-2,5.19-9.7,9-16.25,9-18.28,0-26.85-11.28-26.85-31.59V106.9c0-20.3,8.57-31.59,26.85-31.59,7,0,14.67,3.62,16.93,9.48V77.12h18.5V205.75c0,20.08-11.51,31.59-30.92,31.59"/><path class="c" d="M78.07,273.09l-.44-1.26a3.51,3.51,0,0,1-3,1.53c-2.8,0-4.34-1.74-4.34-4.78V255.34c0-3,1.75-4.78,4.68-4.78s4.64,1.74,4.64,4.78v2.53H76.64v-2.36c0-1.57-.62-2.29-1.71-2.29s-1.74.72-1.74,2.29v12.91c0,1.56.61,2.25,1.71,2.25s1.74-.69,1.74-2.25v-4.14H74.9v-2.56h4.67v11.37Z"/><polygon class="c" points="81.66 273.09 81.66 250.84 88.96 250.84 88.96 253.53 84.59 253.53 84.59 260.26 88.45 260.26 88.45 262.99 84.59 262.99 84.59 270.46 88.96 270.46 88.96 273.09 81.66 273.09 81.66 273.09"/><polygon class="c" points="95.86 253.53 95.86 273.09 92.92 273.09 92.92 253.53 89.71 253.53 89.71 250.84 99.07 250.84 99.07 253.53 95.86 253.53 95.86 253.53"/><polygon class="c" points="105.79 253.53 105.79 273.09 102.85 273.09 102.85 253.53 99.65 253.53 99.65 250.84 109 250.84 109 253.53 105.79 253.53 105.79 253.53"/><polygon class="c" points="110.06 250.84 112.99 250.84 112.99 273.09 110.06 273.09 110.06 250.84 110.06 250.84"/><path class="c" d="M122.45,273.09l-4.51-16.73h-.07a40,40,0,0,1,.38,4.78v11.95h-2.7V250.84h3.28l4.51,16.72h.06a47.27,47.27,0,0,1-.34-4.78V250.84h2.7v22.25Z"/><path class="c" d="M135.79,273.09l-.44-1.26a3.49,3.49,0,0,1-3,1.53c-2.8,0-4.33-1.74-4.33-4.78V255.34c0-3,1.74-4.78,4.68-4.78s4.64,1.74,4.64,4.78v2.53h-2.94v-2.36c0-1.57-.61-2.29-1.7-2.29s-1.75.72-1.75,2.29v12.91c0,1.56.62,2.25,1.71,2.25s1.74-.69,1.74-2.25v-4.14h-1.74v-2.56h4.68v11.37Z"/><polygon class="c" points="148.97 253.53 148.97 273.09 146.03 273.09 146.03 253.53 142.83 253.53 142.83 250.84 152.18 250.84 152.18 253.53 148.97 253.53 148.97 253.53"/><polygon class="c" points="160 273.09 160 262.85 156.18 262.85 156.18 273.09 153.24 273.09 153.24 250.84 156.18 250.84 156.18 260.15 160 260.15 160 250.84 162.93 250.84 162.93 273.09 160 273.09 160 273.09"/><polygon class="c" points="165.49 250.84 168.43 250.84 168.43 273.09 165.49 273.09 165.49 250.84 165.49 250.84"/><path class="c" d="M177.88,273.09l-4.5-16.73h-.07a41,41,0,0,1,.37,4.78v11.95H171V250.84h3.28l4.5,16.72h.07a47.27,47.27,0,0,1-.34-4.78V250.84h2.69v22.25Z"/><path class="c" d="M191.23,273.09l-.44-1.26a3.52,3.52,0,0,1-3,1.53c-2.8,0-4.34-1.74-4.34-4.78V255.34c0-3,1.75-4.78,4.68-4.78s4.64,1.74,4.64,4.78v2.53H189.8v-2.36c0-1.57-.62-2.29-1.71-2.29s-1.74.72-1.74,2.29v12.91c0,1.56.61,2.25,1.71,2.25s1.74-.69,1.74-2.25v-4.14h-1.74v-2.56h4.67v11.37Z"/><path class="c" d="M198.74,273.36a4.39,4.39,0,0,1-4.78-4.78v-2.52h2.9v2.36c0,1.56.86,2.28,1.88,2.28,1.37,0,2-.89,2-2.56a4.4,4.4,0,0,0-1.37-3.48l-3.31-3.59a6.77,6.77,0,0,1-2-5.29c0-3,1.43-5.22,4.75-5.22,3,0,4.7,1.74,4.7,4.78v2.53h-2.9v-2.36c0-1.57-.71-2.29-1.8-2.29s-1.85,1-1.85,2.56a4.42,4.42,0,0,0,1.37,3.49l3.31,3.58a6.78,6.78,0,0,1,2,5.29c0,3-1.64,5.22-4.95,5.22"/><path class="c" d="M217,255.82c0-1.4-.58-2.29-1.81-2.29h-1.88v16.93h1.88c1.23,0,1.81-.89,1.81-2.29V255.82Zm-1.81,17.27h-4.81V250.84h4.81c3.38,0,4.74,1.91,4.74,4.84v12.56c0,2.94-1.36,4.85-4.74,4.85"/><path class="c" d="M228.47,255.51c0-1.57-.75-2.29-1.84-2.29s-1.84.72-1.84,2.29v12.91c0,1.56.75,2.28,1.84,2.28s1.84-.72,1.84-2.28V255.51Zm-1.84,17.85a4.39,4.39,0,0,1-4.78-4.78V255.34a4.78,4.78,0,1,1,9.56,0v13.24a4.4,4.4,0,0,1-4.78,4.78"/><path class="c" d="M240.52,273.09,236,256.36H236a40,40,0,0,1,.38,4.78v11.95h-2.7V250.84h3.28l4.5,16.72h.07a47.27,47.27,0,0,1-.34-4.78V250.84h2.69v22.25Z"/><polygon class="c" points="246.4 273.09 246.4 250.84 253.7 250.84 253.7 253.53 249.33 253.53 249.33 260.26 253.19 260.26 253.19 262.99 249.33 262.99 249.33 270.46 253.7 270.46 253.7 273.09 246.4 273.09 246.4 273.09"/><path class="c" d="M273.25,51.58h2.27c2.33,0,3.08-.67,3.08-2,0-1.19-.58-1.86-2.76-1.86h-2.59v3.9Zm0,7h-1.92V46.11h4.77c3,0,4.42,1.11,4.42,3.55,0,2.24-1.4,3.2-3.26,3.43l3.55,5.47h-2.09l-3.32-5.41h-2.15v5.41Zm2.3-15.27a8.78,8.78,0,0,0-8.87,9,8.84,8.84,0,1,0,17.68,0,8.77,8.77,0,0,0-8.81-9m0-1.74a10.79,10.79,0,1,1-11,10.76,10.76,10.76,0,0,1,11-10.76"/></svg>