<?xml version="1.0" encoding="utf-8"?>
<!-- Generator: Adobe Illustrator 19.0.0, SVG Export Plug-In . SVG Version: 6.00 Build 0)  -->
<svg version="1.1" id="图层_1" xmlns="http://www.w3.org/2000/svg" xmlns:xlink="http://www.w3.org/1999/xlink" x="0px" y="0px"
	 viewBox="-316 249.3 325.9 62.7" style="enable-background:new -316 249.3 325.9 62.7;" xml:space="preserve">
<path id="XMLID_3_" d="M-309.2,258.2h2.6v24.7l27-24.7h3.4l-19.6,17.8l20.8,25h-3.3l-19.4-23.2l-8.9,8.1V301h-2.6V258.2z"/>
<path id="XMLID_5_" d="M-250.1,295.3c0,1.7-0.1,3.7,2,3.7c0.4,0,1-0.1,1.7-0.2v1.9c-0.7,0.2-1.2,0.2-1.9,0.2c-3.6,0-4.1-2-4.1-4.5
	v-1.6h-0.1c-1.5,3.8-5.5,7-11.5,7c-5.8,0-10.3-2.2-10.3-8.7c0-7.3,6.2-8.6,11.3-9.1c10.2-0.7,10.6-1.4,10.6-6.4
	c0-1.4-1.6-6.1-8.6-6.1c-5.5,0-9.2,2.9-9.5,8.2h-2.3c0.3-6.8,4.5-10.2,11.8-10.2c5.4,0,10.8,1.6,10.8,8L-250.1,295.3L-250.1,295.3z
	 M-252.4,283.5c-1.7,2.1-6.7,1.7-11.2,2.4c-5.4,0.7-8.4,2.5-8.4,7.2c0,3.8,2.6,6.7,8.1,6.7c10.4,0,11.5-8.9,11.5-10.5V283.5z"/>
<path id="XMLID_8_" d="M-231.1,301h-2.8l-12.4-30.8h2.6l11.2,28.2h0.1l10.4-28.2h2.5L-231.1,301z"/>
<path id="XMLID_10_" d="M-215.3,285.9c-0.2,7.3,3.7,13.9,11.3,13.9c5.8,0,9.9-3.4,11-9.2h2.3c-1.2,7.3-5.9,11.2-13.3,11.2
	c-8.9,0-13.8-7.1-13.6-15.6c-0.2-8.5,4.3-16.7,13.6-16.7c9.6,0,14,7.6,13.6,16.4H-215.3z M-192.7,283.9c-0.2-6.5-4.3-12.5-11.3-12.5
	c-6.8,0-10.9,6.4-11.3,12.5H-192.7z"/>
<path id="XMLID_13_" d="M-182.3,258.2V301h-2.3v-42.8H-182.3z"/>
<path id="XMLID_15_" d="M-154,280.9c-0.5-3.5-2.6-5.3-6.3-5.3c-5.5,0-7.3,5.5-7.3,10.1c0,4.5,1.7,9.8,7.1,9.8c4,0,6.2-2.5,6.8-6.3
	h8.2c-1.1,8.2-6.7,12.7-14.9,12.7c-9.4,0-15.7-6.6-15.7-15.9c0-9.7,5.8-16.8,15.8-16.8c7.3,0,14.1,3.8,14.6,11.8h-8.3V280.9z"/>
<path id="XMLID_17_" d="M-125.6,269.2c9.8,0,16.1,6.5,16.1,16.4c0,9.8-6.3,16.3-16.1,16.3c-9.7,0-16-6.5-16-16.3
	C-141.6,275.7-135.3,269.2-125.6,269.2z M-125.6,295.5c5.8,0,7.6-4.9,7.6-9.9s-1.7-10-7.6-10c-5.8,0-7.5,5-7.5,10
	C-133.1,290.5-131.4,295.5-125.6,295.5z"/>
<path id="XMLID_20_" d="M-104,270h8.1v5.8h0.1c2-3.7,5.3-4.8,9.6-5.6c0.6-0.1,4.6-0.3,5.3-0.2v5.7c-0.8-0.2-4.7,0.3-5.9,0.6
	c-6.1,1.5-8.7,5.2-8.7,10.7v14h-8.5V270z"/>
<path id="XMLID_22_" d="M-70.9,270h6.2v5.7h-6.2v15.4c0,2.9,0.7,3.6,3.6,3.6c1,0,1.9-0.1,2.6-0.2v6.7c-1.4,0.2-3.3,0.3-5,0.3
	c-5.3,0-9.8-1.1-9.8-7.4v-18.4h-5.2V270h5.2v-9.3h8.5L-70.9,270L-70.9,270z"/>
<path id="XMLID_24_" d="M-53.5,287.6c0.2,5.5,2.8,7.9,7.6,7.9c3.4,0,6.2-2.1,6.7-4h7.5c-2.4,7.4-7.5,10.4-14.5,10.4
	c-9.8,0-15.8-6.7-15.8-16.3c0-9.3,6.4-16.4,15.8-16.4c10.6,0,15.7,8.9,15.1,18.4H-53.5z M-39.7,282.2c-0.8-4.3-2.6-6.6-6.8-6.6
	c-5.5,0-6.9,4.2-7.1,6.6H-39.7z"/>
<path id="XMLID_27_" d="M-18.2,284.7L-28.4,270h9.7l5.5,8.1l5.4-8.1h9.4l-10.2,14.5L2.9,301h-9.7l-6.5-9.8l-6.5,9.8h-9.5
	L-18.2,284.7z"/>
</svg>
