<svg
    xmlns="http://www.w3.org/2000/svg" version="1.1" width="270.3" height="62.7" viewBox="0 0 270.3 62.7">
		<style type="text/css">
			.st0{fill:#FFFFFF;}
		</style>
		<g id="XMLID_15_">
			<path id="XMLID_16_" class="st0" d="M6.8,8.9h2.6v24.7L36.4,8.9h3.4L20.2,26.7l20.8,25h-3.3L18.3,28.5l-8.9,8.1v15.1H6.8V8.9z"/>
			<path id="XMLID_18_" class="st0" d="M65.9,46c0,1.7-0.1,3.7,2,3.7c0.4,0,1-0.1,1.7-0.2v1.9c-0.7,0.2-1.2,0.2-1.9,0.2
				c-3.6,0-4.1-2-4.1-4.5v-1.6h-0.1C62,49.3,58,52.5,52,52.5c-5.8,0-10.3-2.2-10.3-8.7c0-7.3,6.2-8.6,11.3-9.1
				c10.2-0.7,10.6-1.4,10.6-6.4c0-1.4-1.6-6.1-8.6-6.1c-5.5,0-9.2,2.9-9.5,8.2h-2.3c0.3-6.8,4.5-10.2,11.8-10.2c5.4,0,10.8,1.6,10.8,8
				V46z M63.6,34.2c-1.7,2.1-6.7,1.7-11.2,2.4C47,37.3,44,39.1,44,43.8c0,3.8,2.6,6.7,8.1,6.7c10.4,0,11.5-8.9,11.5-10.5V34.2z"/>
			<path id="XMLID_21_" class="st0" d="M84.9,51.7h-2.8L69.7,20.9h2.6l11.2,28.2h0.1L94,20.9h2.5L84.9,51.7z"/>
			<path id="XMLID_23_" class="st0" d="M100.7,36.6c-0.2,7.3,3.7,13.9,11.3,13.9c5.8,0,9.9-3.4,11-9.2h2.3
				c-1.2,7.3-5.9,11.2-13.3,11.2c-8.9,0-13.8-7.1-13.6-15.6c-0.2-8.5,4.3-16.7,13.6-16.7c9.6,0,14,7.6,13.6,16.4H100.7z M123.3,34.6
				c-0.2-6.5-4.3-12.5-11.3-12.5c-6.8,0-10.9,6.4-11.3,12.5H123.3z"/>
			<path id="XMLID_26_" class="st0" d="M133.7,8.9v42.8h-2.3V8.9H133.7z"/>
			<path id="XMLID_28_" class="st0" d="M147.5,41.7c0,3.7,3.2,5.2,6.5,5.2c2.4,0,5.6-1,5.6-4c0-2.6-3.6-3.5-9.7-4.8
				c-5-1.1-9.8-2.8-9.8-8.3c0-7.9,6.8-10,13.5-10c6.7,0,13,2.3,13.7,9.9h-8.1c-0.2-3.3-2.8-4.2-5.8-4.2c-1.9,0-4.7,0.3-4.7,2.9
				c0,3.1,4.9,3.5,9.7,4.6c5,1.1,9.8,2.9,9.8,8.7c0,8.2-7.1,10.8-14.2,10.8c-7.2,0-14.3-2.7-14.6-10.9H147.5z"/>
			<path id="XMLID_30_" class="st0" d="M173.1,20.7h8.1v4h0.1c2.1-3.4,5.4-4.8,9.2-4.8c9.7,0,14.1,7.9,14.1,16.7c0,8.3-4.5,16-13.6,16
				c-3.8,0-7.2-1.6-9.3-4.7h-0.1v14.8h-8.5V20.7z M196.1,36.3c0-5-2-10-7.4-10c-5.6,0-7.4,5-7.4,10c0,5,1.9,9.8,7.4,9.8
				C194.3,46.2,196.1,41.4,196.1,36.3z"/>
			<path id="XMLID_33_" class="st0" d="M224.8,19.9c9.8,0,16.1,6.5,16.1,16.4c0,9.8-6.3,16.3-16.1,16.3c-9.7,0-16-6.5-16-16.3
				C208.8,26.4,215.1,19.9,224.8,19.9z M224.8,46.2c5.8,0,7.6-4.9,7.6-9.9c0-5-1.7-10-7.6-10c-5.8,0-7.5,5-7.5,10
				C217.3,41.2,219.1,46.2,224.8,46.2z"/>
			<path id="XMLID_36_" class="st0" d="M257.2,20.7h6.2v5.7h-6.2v15.4c0,2.9,0.7,3.6,3.6,3.6c1,0,1.9-0.1,2.6-0.2v6.7
				c-1.4,0.2-3.3,0.3-5,0.3c-5.3,0-9.8-1.1-9.8-7.4V26.4h-5.2v-5.7h5.2v-9.3h8.5V20.7z"/>
		</g>
</svg>
