<?xml version="1.0" encoding="UTF-8" standalone="no"?>
<!DOCTYPE svg PUBLIC "-//W3C//DTD SVG 1.1//EN" "http://www.w3.org/Graphics/SVG/1.1/DTD/svg11.dtd">
<svg width="100%" height="100%" viewBox="0 0 1400 400" version="1.1" xmlns="http://www.w3.org/2000/svg" xmlns:xlink="http://www.w3.org/1999/xlink" xml:space="preserve" xmlns:serif="http://www.serif.com/" style="fill-rule:evenodd;clip-rule:evenodd;stroke-linejoin:round;stroke-miterlimit:2;">
    <g id="ko4cbt" transform="matrix(1,0,0,1,-200,-150)">
        <rect x="200" y="150" width="1400" height="400" style="fill:none;"/>
        <clipPath id="_clip1">
            <rect x="200" y="150" width="1400" height="400"/>
        </clipPath>
        <g clip-path="url(#_clip1)">
            <g id="donuto" transform="matrix(1,0,0,1,0,-50)">
                <g id="C" transform="matrix(1,0,0,1,200,200)">
                    <path d="M920,383.333C895.491,394.053 868.435,400 840,400C729.617,400 640,310.383 640,200C640,89.617 729.617,0 840,0C868.435,0 895.491,5.947 920,16.667L920,110.588C898.767,91.572 870.724,80 840,80C773.77,80 720,133.77 720,200C720,266.23 773.77,320 840,320C870.724,320 898.767,308.428 920,289.412L920,383.333Z"/>
                    <path d="M931.111,390.601L931.111,289.412L912.587,281.135C893.321,298.389 867.877,308.889 840,308.889C779.903,308.889 731.111,260.097 731.111,200C731.111,139.903 779.903,91.111 840,91.111C867.877,91.111 893.321,101.611 912.587,118.865L931.111,110.588L931.111,9.399L924.453,6.487C898.58,-4.83 870.018,-11.111 840,-11.111C723.485,-11.111 628.889,83.485 628.889,200C628.889,316.515 723.485,411.111 840,411.111C870.018,411.111 898.58,404.83 924.453,393.513L931.111,390.601ZM920,383.333C895.491,394.053 868.435,400 840,400C729.617,400 640,310.383 640,200C640,89.617 729.617,0 840,0C868.435,0 895.491,5.947 920,16.667L920,110.588C898.767,91.572 870.724,80 840,80C773.77,80 720,133.77 720,200C720,266.23 773.77,320 840,320C870.724,320 898.767,308.428 920,289.412L920,383.333Z" style="fill:white;"/>
                </g>
                <g id="T" transform="matrix(1,0,0,1,200,200)">
                    <path d="M1320,0L1440,0L1440,80L1320,80L1320,400L1240,400L1240,80L1120,80L1120,0L1240,0L1240,0L1320,0L1320,0Z"/>
                    <path d="M1108.89,-11.111L1451.11,-11.111L1451.11,91.111L1331.11,91.111L1331.11,411.111L1228.89,411.111L1228.89,91.111L1108.89,91.111L1108.89,-11.111ZM1120,0L1440,0L1440,80L1320,80L1320,400L1240,400L1240,80L1120,80L1120,0Z" style="fill:white;"/>
                </g>
                <g id="B" transform="matrix(1,0,0,1,200,200)">
                    <path d="M1080,0L1080,0L1080.04,0L1080.04,0C1146.25,0.022 1200,53.783 1200,120C1200,150.724 1188.43,178.767 1169.41,200C1188.43,221.233 1200,249.276 1200,280C1200,346.23 1146.23,400 1080,400L1080,400L1080,400L920,400L920,0L1000,0L1080,0ZM1080,240L1000,240L1000,320L1080,320L1080,320C1102.08,320 1120,302.077 1120,280C1120,257.926 1102.08,240.004 1080,240ZM1080,80L1000,80L1000,160L1080,160L1080,160L1080,160C1102.08,160 1120,142.077 1120,120C1120,97.923 1102.08,80 1080,80L1080,80Z"/>
                    <path d="M1079.98,-11.111L1080,-11.111C1080,-11.111 1080.04,-11.111 1080,-11.111L1091.16,-11.111L1091.16,-10.639C1158.31,-4.966 1211.11,51.4 1211.11,120C1211.11,150.11 1200.94,177.863 1183.85,200C1200.94,222.137 1211.11,249.89 1211.11,280C1211.11,352.355 1152.37,411.099 1080,411.111L1080,411.111L908.889,411.111L908.889,-11.111L1079.98,-11.111ZM1080,0C1080,0 920,0 920,0L920,400L1080,400L1080,400L1080,400L1080,410.373L1080.02,400C1146.24,399.989 1200,346.223 1200,280C1200,249.276 1188.43,221.233 1169.41,200C1188.43,178.767 1200,150.724 1200,120C1200,53.783 1146.25,0.022 1080.04,0L1080,0ZM1080,240L1000,240L1000,320L1080,320C1102.08,320 1120,302.077 1120,280C1120,257.926 1102.08,240.004 1080,240ZM1080,251.111L1011.11,251.111L1011.11,308.889L1080,308.889C1095.94,308.889 1108.89,295.944 1108.89,280C1108.89,264.057 1095.95,251.114 1080,251.111ZM1080,80L1000,80L1000,160L1080,160C1102.08,160 1120,142.077 1120,120C1120,97.923 1102.08,80 1080,80L1080,80ZM1068.89,148.889L1068.89,148.854C1068.89,148.854 1080.04,148.889 1080,148.889C1095.94,148.889 1108.89,135.944 1108.89,120C1108.89,104.056 1095.94,91.111 1080.04,91.111C1080.04,91.111 1080.03,91.111 1080.02,91.111L1011.11,91.111L1011.11,148.889L1068.89,148.889Z" style="fill:white;"/>
                </g>
                <g id="_4" serif:id="4" transform="matrix(1,0,0,1,200,200)">
                    <path d="M320,360L640,0L640,279.75L680,280L680,360L640,360L640,400L560,400L560,360L320,360ZM560.028,190L560.028,279.75L480.25,279.75L560.028,190Z"/>
                    <path d="M548.889,371.111L320,371.111L311.695,352.618L631.695,-7.382L651.111,0L651.111,268.708L691.111,268.958L691.111,371.111L651.111,371.111L651.111,411.111L548.889,411.111L548.889,371.111ZM640,360L680,360L680,280L640,279.75L640,0L320,360L560,360L560,400L640,400L640,360ZM560.028,190L560.028,279.75L480.25,279.75L560.028,190ZM504.993,268.639L548.917,268.639L548.917,219.224L504.993,268.639Z" style="fill:white;"/>
                </g>
                <g id="O" transform="matrix(1,0,0,1,200,200)">
                    <path d="M200,16.667C224.509,5.947 251.565,0 280,0C390.383,0 480,89.617 480,200C480,310.383 390.383,400 280,400C251.565,400 224.509,394.053 200,383.333L200,289.412C221.233,308.428 249.276,320 280,320C346.23,320 400,266.23 400,200C400,133.77 346.23,80 280,80C249.276,80 221.233,91.572 200,110.588L200,16.667ZM80,199.999L80,200.001L80,199.999Z"/>
                    <path d="M188.889,9.399L188.889,110.588L207.413,118.865C226.679,101.611 252.123,91.111 280,91.111C340.097,91.111 388.889,139.903 388.889,200C388.889,260.097 340.097,308.889 280,308.889C252.123,308.889 226.679,298.389 207.413,281.135L188.889,289.412L188.889,390.601L195.547,393.513C221.42,404.83 249.982,411.111 280,411.111C396.515,411.111 491.111,316.515 491.111,200C491.111,83.485 396.515,-11.111 280,-11.111C249.982,-11.111 221.42,-4.83 195.547,6.487L188.889,9.399ZM200,16.667C224.509,5.947 251.565,0 280,0C390.383,0 480,89.617 480,200C480,310.383 390.383,400 280,400C251.565,400 224.509,394.053 200,383.333L200,289.412C221.233,308.428 249.276,320 280,320C346.23,320 400,266.23 400,200C400,133.77 346.23,80 280,80C249.276,80 221.233,91.572 200,110.588L200,16.667ZM80.885,199.991L69.774,200L80.885,200.009L68.889,200.018L68.889,199.982L80.885,199.991ZM91.111,200.001L91.111,200.017L80.885,200.009L91.111,200.001ZM80.885,199.991L91.111,199.983L91.111,199.999L80.885,199.991Z" style="fill:white;"/>
                </g>
                <g id="K" transform="matrix(1,0,0,1,200,200)">
                    <path d="M80,0L80,400L0,400L0,0L80,0ZM80,200L200,0L290,-16.667L160,200L290,416.667L200,400L80,200Z"/>
                    <path d="M91.111,159.885L193.05,-10.013L287.977,-27.592L299.528,-10.95L172.958,200L299.528,410.95L287.977,427.592L193.05,410.013L91.111,240.115L91.111,411.111L-11.111,411.111L-11.111,-11.111L91.111,-11.111L91.111,159.885ZM80,200L200,0L290,-16.667L160,200L290,416.667L200,400L80,200ZM80,0L80,400L0,400L0,0L80,0Z" style="fill:white;"/>
                </g>
            </g>
        </g>
    </g>
</svg>
